<svg width="15" height="14" viewBox="0 0 15 14" fill="none" xmlns="http://www.w3.org/2000/svg">
<g clip-path="url(#clip0_13_429)">
<path d="M13.3438 7C13.3438 8.50842 12.7445 9.95506 11.6779 11.0217C10.6113 12.0883 9.16467 12.6875 7.65625 12.6875C6.14783 12.6875 4.70119 12.0883 3.63458 11.0217C2.56797 9.95506 1.96875 8.50842 1.96875 7C1.96875 5.49158 2.56797 4.04494 3.63458 2.97833C4.70119 1.91172 6.14783 1.3125 7.65625 1.3125C9.16467 1.3125 10.6113 1.91172 11.6779 2.97833C12.7445 4.04494 13.3438 5.49158 13.3438 7ZM0.65625 7C0.65625 8.85652 1.39375 10.637 2.7065 11.9497C4.01926 13.2625 5.79973 14 7.65625 14C9.51277 14 11.2932 13.2625 12.606 11.9497C13.9188 10.637 14.6562 8.85652 14.6562 7C14.6562 5.14348 13.9188 3.36301 12.606 2.05025C11.2932 0.737498 9.51277 0 7.65625 0C5.79973 0 4.01926 0.737498 2.7065 2.05025C1.39375 3.36301 0.65625 5.14348 0.65625 7ZM7 3.28125V7C7 7.21875 7.10938 7.42383 7.29258 7.54688L9.91758 9.29688C10.2184 9.49922 10.6258 9.41719 10.8281 9.11367C11.0305 8.81016 10.9484 8.40547 10.6449 8.20312L8.3125 6.65V3.28125C8.3125 2.91758 8.01992 2.625 7.65625 2.625C7.29258 2.625 7 2.91758 7 3.28125Z" fill="#525252"/>
</g>
<defs>
<clipPath id="clip0_13_429">
<path d="M0.65625 0H14.6562V14H0.65625V0Z" fill="white"/>
</clipPath>
</defs>
</svg>
