<svg width="28" height="36" viewBox="0 0 28 36" fill="none" xmlns="http://www.w3.org/2000/svg">
<path d="M27.5 36H0.5V0H27.5V36Z" stroke="#E5E7EB"/>
<path d="M19.625 27C20.3 24.757 21.6992 22.8445 23.0844 20.9391C23.45 20.4398 23.8156 19.9406 24.1672 19.4344C25.5594 17.4305 26.375 15.0047 26.375 12.382C26.375 5.54063 20.8344 0 14 0C7.16563 0 1.625 5.54063 1.625 12.375C1.625 14.9977 2.44063 17.4305 3.83281 19.4273C4.18438 19.9336 4.55 20.4328 4.91562 20.932C6.30781 22.8375 7.70703 24.757 8.375 26.993H19.625V27ZM14 36C17.1078 36 19.625 33.4828 19.625 30.375V29.25H8.375V30.375C8.375 33.4828 10.8922 36 14 36ZM8.375 12.375C8.375 12.9937 7.86875 13.5 7.25 13.5C6.63125 13.5 6.125 12.9937 6.125 12.375C6.125 8.02266 9.64766 4.5 14 4.5C14.6187 4.5 15.125 5.00625 15.125 5.625C15.125 6.24375 14.6187 6.75 14 6.75C10.8922 6.75 8.375 9.26719 8.375 12.375Z" fill="black"/>
</svg>
