<svg width="16" height="16" viewBox="0 0 16 16" fill="none" xmlns="http://www.w3.org/2000/svg">
<path d="M16 16H0V0H16V16Z" stroke="#E5E7EB"/>
<path d="M1 1C1.55313 1 2 1.44687 2 2V12.5C2 12.775 2.225 13 2.5 13H15C15.5531 13 16 13.4469 16 14C16 14.5531 15.5531 15 15 15H2.5C1.11875 15 0 13.8813 0 12.5V2C0 1.44687 0.446875 1 1 1ZM4 4C4 3.44688 4.44688 3 5 3H11C11.5531 3 12 3.44688 12 4C12 4.55312 11.5531 5 11 5H5C4.44688 5 4 4.55312 4 4ZM5 6H9C9.55313 6 10 6.44688 10 7C10 7.55312 9.55313 8 9 8H5C4.44688 8 4 7.55312 4 7C4 6.44688 4.44688 6 5 6ZM5 9H13C13.5531 9 14 9.44687 14 10C14 10.5531 13.5531 11 13 11H5C4.44688 11 4 10.5531 4 10C4 9.44687 4.44688 9 5 9Z" fill="#155FA0"/>
</svg>
