<svg width="38" height="30" viewBox="0 0 38 30" fill="none" xmlns="http://www.w3.org/2000/svg">
<g clip-path="url(#clip0_138_26)">
<path d="M28.125 2.8125C28.125 1.25977 26.8652 0 25.3125 0H19.6875C18.1348 0 16.875 1.25977 16.875 2.8125V5.625H13.125V1.40625C13.125 0.626953 12.498 0 11.7188 0C10.9395 0 10.3125 0.626953 10.3125 1.40625V5.625H6.5625V1.40625C6.5625 0.626953 5.93555 0 5.15625 0C4.37695 0 3.75 0.626953 3.75 1.40625V5.625H2.8125C1.25977 5.625 0 6.88477 0 8.4375V14.0625V27.1875C0 28.7402 1.25977 30 2.8125 30H17.8125H19.6875H25.3125H34.6875C36.2402 30 37.5 28.7402 37.5 27.1875V14.0625C37.5 12.5098 36.2402 11.25 34.6875 11.25H28.125V2.8125ZM33.75 21.5625V23.4375C33.75 23.9531 33.3281 24.375 32.8125 24.375H30.9375C30.4219 24.375 30 23.9531 30 23.4375V21.5625C30 21.0469 30.4219 20.625 30.9375 20.625H32.8125C33.3281 20.625 33.75 21.0469 33.75 21.5625ZM14.0625 24.375H12.1875C11.6719 24.375 11.25 23.9531 11.25 23.4375V21.5625C11.25 21.0469 11.6719 20.625 12.1875 20.625H14.0625C14.5781 20.625 15 21.0469 15 21.5625V23.4375C15 23.9531 14.5781 24.375 14.0625 24.375ZM7.5 23.4375C7.5 23.9531 7.07812 24.375 6.5625 24.375H4.6875C4.17188 24.375 3.75 23.9531 3.75 23.4375V21.5625C3.75 21.0469 4.17188 20.625 4.6875 20.625H6.5625C7.07812 20.625 7.5 21.0469 7.5 21.5625V23.4375ZM32.8125 15C33.3281 15 33.75 15.4219 33.75 15.9375V17.8125C33.75 18.3281 33.3281 18.75 32.8125 18.75H30.9375C30.4219 18.75 30 18.3281 30 17.8125V15.9375C30 15.4219 30.4219 15 30.9375 15H32.8125ZM15 10.3125V12.1875C15 12.7031 14.5781 13.125 14.0625 13.125H12.1875C11.6719 13.125 11.25 12.7031 11.25 12.1875V10.3125C11.25 9.79688 11.6719 9.375 12.1875 9.375H14.0625C14.5781 9.375 15 9.79688 15 10.3125ZM6.5625 9.375C7.07812 9.375 7.5 9.79688 7.5 10.3125V12.1875C7.5 12.7031 7.07812 13.125 6.5625 13.125H4.6875C4.17188 13.125 3.75 12.7031 3.75 12.1875V10.3125C3.75 9.79688 4.17188 9.375 4.6875 9.375H6.5625ZM15 17.8125C15 18.3281 14.5781 18.75 14.0625 18.75H12.1875C11.6719 18.75 11.25 18.3281 11.25 17.8125V15.9375C11.25 15.4219 11.6719 15 12.1875 15H14.0625C14.5781 15 15 15.4219 15 15.9375V17.8125ZM6.5625 18.75H4.6875C4.17188 18.75 3.75 18.3281 3.75 17.8125V15.9375C3.75 15.4219 4.17188 15 4.6875 15H6.5625C7.07812 15 7.5 15.4219 7.5 15.9375V17.8125C7.5 18.3281 7.07812 18.75 6.5625 18.75ZM24.375 15.9375V17.8125C24.375 18.3281 23.9531 18.75 23.4375 18.75H21.5625C21.0469 18.75 20.625 18.3281 20.625 17.8125V15.9375C20.625 15.4219 21.0469 15 21.5625 15H23.4375C23.9531 15 24.375 15.4219 24.375 15.9375ZM23.4375 3.75C23.9531 3.75 24.375 4.17188 24.375 4.6875V6.5625C24.375 7.07812 23.9531 7.5 23.4375 7.5H21.5625C21.0469 7.5 20.625 7.07812 20.625 6.5625V4.6875C20.625 4.17188 21.0469 3.75 21.5625 3.75H23.4375ZM24.375 10.3125V12.1875C24.375 12.7031 23.9531 13.125 23.4375 13.125H21.5625C21.0469 13.125 20.625 12.7031 20.625 12.1875V10.3125C20.625 9.79688 21.0469 9.375 21.5625 9.375H23.4375C23.9531 9.375 24.375 9.79688 24.375 10.3125Z" fill="black"/>
</g>
<defs>
<clipPath id="clip0_138_26">
<path d="M0 0H37.5V30H0V0Z" fill="white"/>
</clipPath>
</defs>
</svg>
