<svg width="16" height="16" viewBox="0 0 16 16" fill="none" xmlns="http://www.w3.org/2000/svg">
<g clip-path="url(#clip0_13_468)">
<path d="M0 8C0 5.87827 0.842855 3.84344 2.34315 2.34315C3.84344 0.842855 5.87827 0 8 0C10.1217 0 12.1566 0.842855 13.6569 2.34315C15.1571 3.84344 16 5.87827 16 8C16 10.1217 15.1571 12.1566 13.6569 13.6569C12.1566 15.1571 10.1217 16 8 16C5.87827 16 3.84344 15.1571 2.34315 13.6569C0.842855 12.1566 0 10.1217 0 8ZM10 11C10 10.1594 9.48438 9.44063 8.75 9.14688V2.75C8.75 2.33437 8.41562 2 8 2C7.58437 2 7.25 2.33437 7.25 2.75V9.14688C6.51562 9.44375 6 10.1625 6 11C6 12.1031 6.89687 13 8 13C9.10312 13 10 12.1031 10 11ZM4.5 5.5C4.76522 5.5 5.01957 5.39464 5.20711 5.20711C5.39464 5.01957 5.5 4.76522 5.5 4.5C5.5 4.23478 5.39464 3.98043 5.20711 3.79289C5.01957 3.60536 4.76522 3.5 4.5 3.5C4.23478 3.5 3.98043 3.60536 3.79289 3.79289C3.60536 3.98043 3.5 4.23478 3.5 4.5C3.5 4.76522 3.60536 5.01957 3.79289 5.20711C3.98043 5.39464 4.23478 5.5 4.5 5.5ZM4 8C4 7.73478 3.89464 7.48043 3.70711 7.29289C3.51957 7.10536 3.26522 7 3 7C2.73478 7 2.48043 7.10536 2.29289 7.29289C2.10536 7.48043 2 7.73478 2 8C2 8.26522 2.10536 8.51957 2.29289 8.70711C2.48043 8.89464 2.73478 9 3 9C3.26522 9 3.51957 8.89464 3.70711 8.70711C3.89464 8.51957 4 8.26522 4 8ZM13 9C13.2652 9 13.5196 8.89464 13.7071 8.70711C13.8946 8.51957 14 8.26522 14 8C14 7.73478 13.8946 7.48043 13.7071 7.29289C13.5196 7.10536 13.2652 7 13 7C12.7348 7 12.4804 7.10536 12.2929 7.29289C12.1054 7.48043 12 7.73478 12 8C12 8.26522 12.1054 8.51957 12.2929 8.70711C12.4804 8.89464 12.7348 9 13 9ZM12.5 4.5C12.5 4.23478 12.3946 3.98043 12.2071 3.79289C12.0196 3.60536 11.7652 3.5 11.5 3.5C11.2348 3.5 10.9804 3.60536 10.7929 3.79289C10.6054 3.98043 10.5 4.23478 10.5 4.5C10.5 4.76522 10.6054 5.01957 10.7929 5.20711C10.9804 5.39464 11.2348 5.5 11.5 5.5C11.7652 5.5 12.0196 5.39464 12.2071 5.20711C12.3946 5.01957 12.5 4.76522 12.5 4.5Z" fill="white"/>
</g>
<defs>
<clipPath id="clip0_13_468">
<path d="M0 0H16V16H0V0Z" fill="white"/>
</clipPath>
</defs>
</svg>
