<svg width="42" height="36" viewBox="0 0 42 36" fill="none" xmlns="http://www.w3.org/2000/svg">
<g clip-path="url(#clip0_1_417)">
<path d="M19.6993 4.91482C20.4797 4.35935 21.5204 4.35935 22.3008 4.91482C23.8829 6.00466 25.8165 6.74997 27.7501 6.74997C29.6415 6.74997 31.6454 5.9906 33.1922 4.91482C34.029 4.31716 35.168 4.36638 35.9485 5.03435C36.961 5.87107 38.2336 6.51091 39.5063 6.80622C40.7157 7.08747 41.468 8.29685 41.1868 9.50622C40.9055 10.7156 39.6961 11.4679 38.4868 11.1867C36.7641 10.7859 35.3297 10.0265 34.3946 9.42888C32.3555 10.5258 30.0704 11.25 27.7501 11.25C25.5071 11.25 23.4891 10.5539 22.0969 9.92107C21.6891 9.73122 21.3165 9.54841 21.0001 9.37966C20.6836 9.54841 20.318 9.73825 19.9032 9.92107C18.511 10.5539 16.493 11.25 14.2501 11.25C11.9297 11.25 9.64458 10.5258 7.60552 9.43591C6.66333 10.0265 5.23599 10.7929 3.51333 11.1937C2.30396 11.475 1.09458 10.7226 0.813334 9.51325C0.532084 8.30388 1.28443 7.0945 2.4938 6.81325C3.75943 6.51091 5.03912 5.87107 6.04458 5.03435C6.82505 4.36638 7.96412 4.32419 8.80083 4.91482C10.3618 5.9906 12.3586 6.74997 14.2501 6.74997C16.1836 6.74997 18.1172 6.00466 19.6993 4.91482ZM22.3008 25.1648C23.8829 26.2547 25.8165 27 27.7501 27C29.6415 27 31.6454 26.2406 33.1922 25.1648C34.029 24.5672 35.168 24.6164 35.9485 25.2843C36.961 26.1211 38.2336 26.7609 39.5063 27.0562C40.7157 27.3375 41.468 28.5468 41.1868 29.7562C40.9055 30.9656 39.6961 31.7179 38.4868 31.4367C36.7641 31.0359 35.3297 30.2765 34.3946 29.6789C32.3555 30.7758 30.0704 31.5 27.7501 31.5C25.5071 31.5 23.4891 30.8039 22.0969 30.1711C21.6891 29.9812 21.3165 29.7984 21.0001 29.6297C20.6836 29.7984 20.318 29.9883 19.9032 30.1711C18.511 30.8039 16.493 31.5 14.2501 31.5C11.9297 31.5 9.64458 30.7758 7.60552 29.6859C6.66333 30.2765 5.23599 31.0429 3.51333 31.4437C2.30396 31.725 1.09458 30.9726 0.813334 29.7633C0.532084 28.5539 1.28443 27.3445 2.4938 27.0633C3.76646 26.7679 5.03912 26.1281 6.05162 25.2914C6.83208 24.6304 7.97115 24.5812 8.80787 25.1718C10.3618 26.2406 12.3586 27 14.2501 27C16.1836 27 18.1172 26.2547 19.6993 25.1648C20.4797 24.6093 21.5204 24.6093 22.3008 25.1648ZM22.3008 15.0398C23.8829 16.1297 25.8165 16.875 27.7501 16.875C29.6415 16.875 31.6454 16.1156 33.1922 15.0398C34.029 14.4422 35.168 14.4914 35.9485 15.1593C36.961 15.9961 38.2336 16.6359 39.5063 16.9312C40.7157 17.2125 41.468 18.4218 41.1868 19.6312C40.9055 20.8406 39.6961 21.5929 38.4868 21.3117C36.7641 20.9109 35.3297 20.1515 34.3946 19.5539C32.3555 20.6508 30.0704 21.375 27.7501 21.375C25.5071 21.375 23.4891 20.6789 22.0969 20.0461C21.6891 19.8562 21.3165 19.6734 21.0001 19.5047C20.6836 19.6734 20.318 19.8633 19.9032 20.0461C18.511 20.6789 16.493 21.375 14.2501 21.375C11.9297 21.375 9.64458 20.6508 7.60552 19.5609C6.66333 20.1515 5.23599 20.9179 3.51333 21.3187C2.30396 21.6 1.09458 20.8476 0.813334 19.6383C0.532084 18.4289 1.28443 17.2195 2.4938 16.9383C3.76646 16.6429 5.03912 16.0031 6.05162 15.1664C6.83208 14.4984 7.97115 14.4562 8.80787 15.0468C10.3618 16.1156 12.3586 16.875 14.2501 16.875C16.1836 16.875 18.1172 16.1297 19.6993 15.0398C20.4797 14.4843 21.5204 14.4843 22.3008 15.0398Z" fill="black"/>
</g>
<defs>
<clipPath id="clip0_1_417">
<path d="M0.75 0H41.25V36H0.75V0Z" fill="white"/>
</clipPath>
</defs>
</svg>
