<svg width="14" height="18" viewBox="0 0 14 18" fill="none" xmlns="http://www.w3.org/2000/svg">
<g clip-path="url(#clip0_104_2249)">
<path d="M5.4 1.05117L5.9625 0.302344C6.10313 0.1125 6.32812 0 6.56367 0C6.975 0 7.3125 0.3375 7.3125 0.748828V1.5293C7.3125 1.98984 7.50234 2.43281 7.83633 2.74922L10.8141 5.58984C12.5297 7.22813 13.5 9.49922 13.5 11.8723C13.5 15.2578 10.7578 18 7.37227 18H6.75C3.02344 18 0 14.9766 0 11.25V11.1164C0 9.40078 0.682031 7.75547 1.89492 6.54258L2.01797 6.41953C2.16563 6.27188 2.36953 6.1875 2.58047 6.1875C3.01992 6.1875 3.375 6.54258 3.375 6.98203V10.125C3.375 11.366 4.38398 12.375 5.625 12.375C6.86602 12.375 7.875 11.366 7.875 10.125V9.98789C7.875 9.35508 7.62188 8.74687 7.17539 8.30039L5.81836 6.94336C4.97461 6.09961 4.5 4.95 4.5 3.75469C4.5 2.78086 4.81641 1.82812 5.4 1.05117Z" fill="#155FA0"/>
</g>
<defs>
<clipPath id="clip0_104_2249">
<path d="M0 0H13.5V18H0V0Z" fill="white"/>
</clipPath>
</defs>
</svg>
