<svg width="25" height="24" viewBox="0 0 25 24" fill="none" xmlns="http://www.w3.org/2000/svg">
<g clip-path="url(#clip0_104_2373)">
<path d="M14.5938 2.25C14.5938 1.65326 14.3567 1.08097 13.9347 0.65901C13.5128 0.237053 12.9405 0 12.3438 0C11.747 0 11.1747 0.237053 10.7528 0.65901C10.3308 1.08097 10.0938 1.65326 10.0938 2.25C10.0938 2.84674 10.3308 3.41903 10.7528 3.84099C11.1747 4.26295 11.747 4.5 12.3438 4.5C12.9405 4.5 13.5128 4.26295 13.9347 3.84099C14.3567 3.41903 14.5938 2.84674 14.5938 2.25ZM14.5938 21.75C14.5938 21.1533 14.3567 20.581 13.9347 20.159C13.5128 19.7371 12.9405 19.5 12.3438 19.5C11.747 19.5 11.1747 19.7371 10.7528 20.159C10.3308 20.581 10.0938 21.1533 10.0938 21.75C10.0938 22.3467 10.3308 22.919 10.7528 23.341C11.1747 23.7629 11.747 24 12.3438 24C12.9405 24 13.5128 23.7629 13.9347 23.341C14.3567 22.919 14.5938 22.3467 14.5938 21.75ZM2.59375 14.25C3.19049 14.25 3.76278 14.0129 4.18474 13.591C4.6067 13.169 4.84375 12.5967 4.84375 12C4.84375 11.4033 4.6067 10.831 4.18474 10.409C3.76278 9.98705 3.19049 9.75 2.59375 9.75C1.99701 9.75 1.42472 9.98705 1.00276 10.409C0.580803 10.831 0.34375 11.4033 0.34375 12C0.34375 12.5967 0.580803 13.169 1.00276 13.591C1.42472 14.0129 1.99701 14.25 2.59375 14.25ZM24.3438 12C24.3438 11.4033 24.1067 10.831 23.6847 10.409C23.2628 9.98705 22.6905 9.75 22.0938 9.75C21.497 9.75 20.9247 9.98705 20.5028 10.409C20.0808 10.831 19.8438 11.4033 19.8438 12C19.8438 12.5967 20.0808 13.169 20.5028 13.591C20.9247 14.0129 21.497 14.25 22.0938 14.25C22.6905 14.25 23.2628 14.0129 23.6847 13.591C24.1067 13.169 24.3438 12.5967 24.3438 12ZM7.04219 20.4844C7.25117 20.2754 7.41695 20.0273 7.53005 19.7542C7.64316 19.4812 7.70137 19.1885 7.70137 18.893C7.70137 18.5974 7.64316 18.3048 7.53005 18.0317C7.41695 17.7587 7.25117 17.5105 7.04219 17.3016C6.8332 17.0926 6.5851 16.9268 6.31204 16.8137C6.03899 16.7006 5.74633 16.6424 5.45078 16.6424C4.85389 16.6424 4.28144 16.8795 3.85938 17.3016C3.43731 17.7236 3.20019 18.2961 3.20019 18.893C3.20019 19.4899 3.43731 20.0623 3.85938 20.4844C4.28144 20.9064 4.85389 21.1436 5.45078 21.1436C6.04767 21.1436 6.62012 20.9064 7.04219 20.4844ZM7.04219 6.69375C7.26156 6.4872 7.43721 6.23869 7.55871 5.96296C7.68022 5.68724 7.74511 5.38992 7.74953 5.08864C7.75395 4.78736 7.69781 4.48827 7.58445 4.2091C7.47108 3.92992 7.3028 3.67637 7.08959 3.46347C6.87637 3.25057 6.62257 3.08266 6.34323 2.96971C6.06389 2.85675 5.76471 2.80106 5.46344 2.80592C5.16217 2.81079 4.86495 2.87611 4.5894 2.99802C4.31386 3.11994 4.06561 3.29595 3.85938 3.51562C3.43731 3.93769 3.20019 4.51014 3.20019 5.10703C3.20019 5.70392 3.43731 6.27637 3.85938 6.69844C4.28144 7.1205 4.85389 7.35762 5.45078 7.35762C6.04767 7.35762 6.62012 7.1205 7.04219 6.69844V6.69375ZM17.6453 20.4844C17.8543 20.6934 18.1024 20.8591 18.3755 20.9722C18.6485 21.0853 18.9412 21.1436 19.2367 21.1436C19.5323 21.1436 19.8249 21.0853 20.098 20.9722C20.371 20.8591 20.6191 20.6934 20.8281 20.4844C21.0371 20.2754 21.2029 20.0273 21.316 19.7542C21.4291 19.4812 21.4873 19.1885 21.4873 18.893C21.4873 18.5974 21.4291 18.3048 21.316 18.0317C21.2029 17.7587 21.0371 17.5105 20.8281 17.3016C20.6191 17.0926 20.371 16.9268 20.098 16.8137C19.8249 16.7006 19.5323 16.6424 19.2367 16.6424C18.9412 16.6424 18.6485 16.7006 18.3755 16.8137C18.1024 16.9268 17.8543 17.0926 17.6453 17.3016C17.4363 17.5105 17.2705 17.7587 17.1574 18.0317C17.0443 18.3048 16.9861 18.5974 16.9861 18.893C16.9861 19.1885 17.0443 19.4812 17.1574 19.7542C17.2705 20.0273 17.4363 20.2754 17.6453 20.4844Z" fill="#EAB308"/>
</g>
<defs>
<clipPath id="clip0_104_2373">
<path d="M0.34375 0H24.3438V24H0.34375V0Z" fill="white"/>
</clipPath>
</defs>
</svg>
