<svg width="25" height="24" viewBox="0 0 25 24" fill="none" xmlns="http://www.w3.org/2000/svg">
<g clip-path="url(#clip0_104_2370)">
<path d="M12.6719 24C15.8545 24 18.9067 22.7357 21.1572 20.4853C23.4076 18.2348 24.6719 15.1826 24.6719 12C24.6719 8.8174 23.4076 5.76516 21.1572 3.51472C18.9067 1.26428 15.8545 0 12.6719 0C9.48928 0 6.43703 1.26428 4.18659 3.51472C1.93616 5.76516 0.671875 8.8174 0.671875 12C0.671875 15.1826 1.93616 18.2348 4.18659 20.4853C6.43703 22.7357 9.48928 24 12.6719 24ZM17.9688 9.79688L11.9688 15.7969C11.5281 16.2375 10.8156 16.2375 10.3797 15.7969L7.37969 12.7969C6.93906 12.3562 6.93906 11.6438 7.37969 11.2078C7.82031 10.7719 8.53281 10.7672 8.96875 11.2078L11.1719 13.4109L16.375 8.20312C16.8156 7.7625 17.5281 7.7625 17.9641 8.20312C18.4 8.64375 18.4047 9.35625 17.9641 9.79219L17.9688 9.79688Z" fill="#16A34A"/>
</g>
<defs>
<clipPath id="clip0_104_2370">
<path d="M0.671875 0H24.6719V24H0.671875V0Z" fill="white"/>
</clipPath>
</defs>
</svg>
