<svg width="42" height="36" viewBox="0 0 42 36" fill="none" xmlns="http://www.w3.org/2000/svg">
<g clip-path="url(#clip0_1_402)">
<path d="M18.75 2.25H13.4906C11.5852 2.25 9.88359 3.45234 9.25078 5.24531L0.967969 28.6313C0.827344 29.0391 0.75 29.475 0.75 29.9109C0.75 32.0273 2.47266 33.75 4.58906 33.75H18.75V29.25C18.75 28.0055 19.7555 27 21 27C22.2445 27 23.25 28.0055 23.25 29.25V33.75H37.4109C39.5344 33.75 41.25 32.0273 41.25 29.9109C41.25 29.475 41.1727 29.0391 41.032 28.6313L32.7492 5.24531C32.1094 3.45234 30.4148 2.25 28.5094 2.25H23.25V6.75C23.25 7.99453 22.2445 9 21 9C19.7555 9 18.75 7.99453 18.75 6.75V2.25ZM23.25 15.75V20.25C23.25 21.4945 22.2445 22.5 21 22.5C19.7555 22.5 18.75 21.4945 18.75 20.25V15.75C18.75 14.5055 19.7555 13.5 21 13.5C22.2445 13.5 23.25 14.5055 23.25 15.75Z" fill="black"/>
</g>
<defs>
<clipPath id="clip0_1_402">
<path d="M0.75 0H41.25V36H0.75V0Z" fill="white"/>
</clipPath>
</defs>
</svg>
