<svg width="17" height="16" viewBox="0 0 17 16" fill="none" xmlns="http://www.w3.org/2000/svg">
<g clip-path="url(#clip0_104_2359)">
<path d="M0.609375 2C0.609375 0.896875 1.50625 0 2.60938 0H7.60938V4C7.60938 4.55312 8.05625 5 8.60938 5H12.6094V9.5H6.10938C5.00625 9.5 4.10938 10.3969 4.10938 11.5V16H2.60938C1.50625 16 0.609375 15.1031 0.609375 14V2ZM12.6094 4H8.60938V0L12.6094 4ZM6.10938 11H7.10938C8.075 11 8.85938 11.7844 8.85938 12.75C8.85938 13.7156 8.075 14.5 7.10938 14.5H6.60938V15.5C6.60938 15.775 6.38438 16 6.10938 16C5.83437 16 5.60938 15.775 5.60938 15.5V14V11.5C5.60938 11.225 5.83437 11 6.10938 11ZM7.10938 13.5C7.525 13.5 7.85938 13.1656 7.85938 12.75C7.85938 12.3344 7.525 12 7.10938 12H6.60938V13.5H7.10938ZM10.1094 11H11.1094C11.9375 11 12.6094 11.6719 12.6094 12.5V14.5C12.6094 15.3281 11.9375 16 11.1094 16H10.1094C9.83438 16 9.60938 15.775 9.60938 15.5V11.5C9.60938 11.225 9.83438 11 10.1094 11ZM11.1094 15C11.3844 15 11.6094 14.775 11.6094 14.5V12.5C11.6094 12.225 11.3844 12 11.1094 12H10.6094V15H11.1094ZM13.6094 11.5C13.6094 11.225 13.8344 11 14.1094 11H15.6094C15.8844 11 16.1094 11.225 16.1094 11.5C16.1094 11.775 15.8844 12 15.6094 12H14.6094V13H15.6094C15.8844 13 16.1094 13.225 16.1094 13.5C16.1094 13.775 15.8844 14 15.6094 14H14.6094V15.5C14.6094 15.775 14.3844 16 14.1094 16C13.8344 16 13.6094 15.775 13.6094 15.5V13.5V11.5Z" fill="#1D4ED8"/>
</g>
<defs>
<clipPath id="clip0_104_2359">
<path d="M0.609375 0H16.6094V16H0.609375V0Z" fill="white"/>
</clipPath>
</defs>
</svg>
