<svg width="23" height="20" viewBox="0 0 23 20" fill="none" xmlns="http://www.w3.org/2000/svg">
<g clip-path="url(#clip0_1_781)">
<path d="M10 1.25H7.07812C6.01953 1.25 5.07422 1.91797 4.72266 2.91406L0.121094 15.9062C0.0429687 16.1328 0 16.375 0 16.6172C0 17.793 0.957031 18.75 2.13281 18.75H10V16.25C10 15.5586 10.5586 15 11.25 15C11.9414 15 12.5 15.5586 12.5 16.25V18.75H20.3672C21.5469 18.75 22.5 17.793 22.5 16.6172C22.5 16.375 22.457 16.1328 22.3789 15.9062L17.7773 2.91406C17.4219 1.91797 16.4805 1.25 15.4219 1.25H12.5V3.75C12.5 4.44141 11.9414 5 11.25 5C10.5586 5 10 4.44141 10 3.75V1.25ZM12.5 8.75V11.25C12.5 11.9414 11.9414 12.5 11.25 12.5C10.5586 12.5 10 11.9414 10 11.25V8.75C10 8.05859 10.5586 7.5 11.25 7.5C11.9414 7.5 12.5 8.05859 12.5 8.75Z" fill="black"/>
</g>
<defs>
<clipPath id="clip0_1_781">
<path d="M0 0H22.5V20H0V0Z" fill="white"/>
</clipPath>
</defs>
</svg>
