<svg width="27" height="24" viewBox="0 0 27 24" fill="none" xmlns="http://www.w3.org/2000/svg">
<g clip-path="url(#clip0_1_768)">
<path d="M14.8548 0.84375C14.6064 0.328125 14.0814 0 13.5048 0C12.9282 0 12.4079 0.328125 12.1548 0.84375L9.14073 7.04531L2.40948 8.03906C1.84698 8.12344 1.37823 8.51719 1.20479 9.05625C1.03136 9.59531 1.17198 10.1906 1.57511 10.5891L6.45948 15.4219L5.30636 22.2516C5.21261 22.8141 5.44698 23.3859 5.91104 23.7188C6.37511 24.0516 6.98917 24.0938 7.49542 23.8266L13.5095 20.6156L19.5235 23.8266C20.0298 24.0938 20.6439 24.0562 21.1079 23.7188C21.572 23.3813 21.8064 22.8141 21.7126 22.2516L20.5548 15.4219L25.4392 10.5891C25.8423 10.1906 25.9876 9.59531 25.8095 9.05625C25.6314 8.51719 25.1673 8.12344 24.6048 8.03906L17.8689 7.04531L14.8548 0.84375Z" fill="black"/>
</g>
<defs>
<clipPath id="clip0_1_768">
<path d="M0 0H27V24H0V0Z" fill="white"/>
</clipPath>
</defs>
</svg>
