<svg width="21" height="24" viewBox="0 0 21 24" fill="none" xmlns="http://www.w3.org/2000/svg">
<g clip-path="url(#clip0_1_738)">
<path d="M1.5 0C2.32969 0 3 0.670312 3 1.5V2.25L6.23438 1.44375C8.02031 0.998437 9.90469 1.20469 11.5547 2.02969C13.725 3.11719 16.2797 3.11719 18.45 2.02969L18.9 1.80469C19.8656 1.31719 21 2.02031 21 3.09844V16.2094C21 16.8328 20.6109 17.3953 20.025 17.6156L18.3984 18.225C16.2328 19.0359 13.8234 18.9094 11.7563 17.8781C9.97969 16.9875 7.94531 16.7672 6.01406 17.25L3 18V22.5C3 23.3297 2.32969 24 1.5 24C0.670312 24 0 23.3297 0 22.5V18.75V15.6562V3V1.5C0 0.670312 0.670312 0 1.5 0ZM3 8.77031L6 8.11875V11.1891L3 11.8406V14.9062L5.2875 14.3344C5.52656 14.2734 5.76094 14.2219 6 14.1797V11.1891L7.82344 10.7953C8.2125 10.7109 8.60625 10.6781 9 10.6969V7.69687C9.6375 7.71562 10.275 7.81875 10.8937 7.99688L12 8.32031V11.4469L10.0453 10.8703C9.70312 10.7719 9.35156 10.7109 9 10.6922V14.0391C10.0219 14.1281 11.0297 14.3531 12 14.7141V11.4469L13.0641 11.7609C13.6969 11.9484 14.3438 12.0609 15 12.1078V9.09375C14.6344 9.05625 14.2687 8.98594 13.9125 8.88281L12 8.32031V5.41406C11.3906 5.23594 10.7906 5.00156 10.2094 4.71094C9.825 4.51875 9.41719 4.38281 9 4.29844V7.69219C8.39062 7.67344 7.78125 7.72969 7.18594 7.86094L6 8.11875V4.59375L3 5.34375V8.77031ZM15 15.7359C15.7875 15.8063 16.5891 15.7031 17.3438 15.4172L18 15.1734V11.8078L17.6297 11.8922C16.7672 12.0938 15.8813 12.1594 15 12.1031V15.7313V15.7359ZM18 8.73281V5.40938C17.0203 5.69531 16.0125 5.83594 15 5.83594V9.09375C15.6516 9.15938 16.3125 9.11719 16.9547 8.97187L18 8.72812V8.73281Z" fill="black"/>
</g>
<defs>
<clipPath id="clip0_1_738">
<path d="M0 0H21V24H0V0Z" fill="white"/>
</clipPath>
</defs>
</svg>
