<svg width="21" height="24" viewBox="0 0 21 24" fill="none" xmlns="http://www.w3.org/2000/svg">
<g clip-path="url(#clip0_1_748)">
<path d="M16.0595 4.05935C16.6454 3.47341 16.6454 2.52185 16.0595 1.93591C15.4735 1.34998 14.522 1.34998 13.936 1.93591L7.5001 8.37654L4.80947 5.68591C4.22354 5.09998 3.27197 5.09998 2.68604 5.68591C2.1001 6.27185 2.1001 7.22341 2.68604 7.80935L6.43604 11.5594C7.02197 12.1453 7.97354 12.1453 8.55947 11.5594L16.0595 4.05935ZM20.5595 10.0594C21.1454 9.47341 21.1454 8.52185 20.5595 7.93591C19.9735 7.34998 19.022 7.34998 18.436 7.93591L7.5001 18.8765L2.55947 13.9406C1.97354 13.3547 1.02197 13.3547 0.436035 13.9406C-0.149902 14.5265 -0.149902 15.4781 0.436035 16.064L6.43604 22.064C7.02197 22.65 7.97354 22.65 8.55947 22.064L20.5595 10.064V10.0594Z" fill="black"/>
</g>
<defs>
<clipPath id="clip0_1_748">
<path d="M0 0H21V24H0V0Z" fill="white"/>
</clipPath>
</defs>
</svg>
