<svg width="15" height="16" viewBox="0 0 15 16" fill="none" xmlns="http://www.w3.org/2000/svg">
<g clip-path="url(#clip0_104_2356)">
<path d="M11.0156 7C12.6719 7 14.0156 5.65625 14.0156 4C14.0156 2.34375 12.6719 1 11.0156 1C9.35938 1 8.01562 2.34375 8.01562 4C8.01562 4.125 8.02188 4.25 8.0375 4.37187L5.09688 5.84062C4.55938 5.31875 3.825 5 3.01562 5C1.35938 5 0.015625 6.34375 0.015625 8C0.015625 9.65625 1.35938 11 3.01562 11C3.825 11 4.55938 10.6813 5.09688 10.1594L8.0375 11.6281C8.02188 11.75 8.01562 11.8719 8.01562 12C8.01562 13.6562 9.35938 15 11.0156 15C12.6719 15 14.0156 13.6562 14.0156 12C14.0156 10.3438 12.6719 9 11.0156 9C10.2063 9 9.47188 9.31875 8.93437 9.84062L5.99375 8.37187C6.00938 8.25 6.01562 8.12813 6.01562 8C6.01562 7.87187 6.00938 7.75 5.99375 7.62813L8.93437 6.15938C9.47188 6.68125 10.2063 7 11.0156 7Z" fill="white"/>
</g>
<defs>
<clipPath id="clip0_104_2356">
<path d="M0.015625 0H14.0156V16H0.015625V0Z" fill="white"/>
</clipPath>
</defs>
</svg>
