<svg width="15" height="20" viewBox="0 0 15 20" fill="none" xmlns="http://www.w3.org/2000/svg">
<g clip-path="url(#clip0_1_790)">
<path d="M10.625 15C11 13.7539 11.7773 12.6914 12.5469 11.6328C12.75 11.3555 12.9531 11.0781 13.1484 10.7969C13.9219 9.68359 14.375 8.33594 14.375 6.87891C14.375 3.07812 11.2969 0 7.5 0C3.70312 0 0.625 3.07812 0.625 6.875C0.625 8.33203 1.07813 9.68359 1.85156 10.793C2.04688 11.0742 2.25 11.3516 2.45312 11.6289C3.22656 12.6875 4.00391 13.7539 4.375 14.9961H10.625V15ZM7.5 20C9.22656 20 10.625 18.6016 10.625 16.875V16.25H4.375V16.875C4.375 18.6016 5.77344 20 7.5 20ZM4.375 6.875C4.375 7.21875 4.09375 7.5 3.75 7.5C3.40625 7.5 3.125 7.21875 3.125 6.875C3.125 4.45703 5.08203 2.5 7.5 2.5C7.84375 2.5 8.125 2.78125 8.125 3.125C8.125 3.46875 7.84375 3.75 7.5 3.75C5.77344 3.75 4.375 5.14844 4.375 6.875Z" fill="black"/>
</g>
<defs>
<clipPath id="clip0_1_790">
<path d="M0 0H15V20H0V0Z" fill="white"/>
</clipPath>
</defs>
</svg>
